<mxfile host="app.diagrams.net" modified="2023-04-19T17:20:51.701Z" agent="Mozilla/5.0 (Windows NT 10.0; Win64; x64) AppleWebKit/537.36 (KHTML, like Gecko) Chrome/112.0.0.0 Safari/537.36" etag="RjNxVoTHvpm9MZ82o8O5" version="21.2.0" type="device">
  <diagram name="Page-1" id="U4ExreBVEH7mwIZFU8Ao">
    <mxGraphModel dx="1235" dy="636" grid="1" gridSize="10" guides="1" tooltips="1" connect="1" arrows="1" fold="1" page="1" pageScale="1" pageWidth="850" pageHeight="1100" math="0" shadow="0">
      <root>
        <mxCell id="0" />
        <mxCell id="1" parent="0" />
        <mxCell id="f4N3mNSty8GtpxQ3-fXS-3" value="" style="edgeStyle=orthogonalEdgeStyle;rounded=0;orthogonalLoop=1;jettySize=auto;html=1;entryX=0.5;entryY=0;entryDx=0;entryDy=0;" edge="1" parent="1" source="f4N3mNSty8GtpxQ3-fXS-1" target="f4N3mNSty8GtpxQ3-fXS-4">
          <mxGeometry relative="1" as="geometry">
            <mxPoint x="400" y="200" as="targetPoint" />
          </mxGeometry>
        </mxCell>
        <mxCell id="f4N3mNSty8GtpxQ3-fXS-1" value="BẮT ĐẦU" style="ellipse;whiteSpace=wrap;html=1;" vertex="1" parent="1">
          <mxGeometry x="340" y="80" width="120" height="80" as="geometry" />
        </mxCell>
        <mxCell id="f4N3mNSty8GtpxQ3-fXS-6" value="" style="edgeStyle=orthogonalEdgeStyle;rounded=0;orthogonalLoop=1;jettySize=auto;html=1;" edge="1" parent="1" source="f4N3mNSty8GtpxQ3-fXS-4" target="f4N3mNSty8GtpxQ3-fXS-5">
          <mxGeometry relative="1" as="geometry" />
        </mxCell>
        <mxCell id="f4N3mNSty8GtpxQ3-fXS-9" value="" style="edgeStyle=orthogonalEdgeStyle;rounded=0;orthogonalLoop=1;jettySize=auto;html=1;" edge="1" parent="1" source="f4N3mNSty8GtpxQ3-fXS-4" target="f4N3mNSty8GtpxQ3-fXS-8">
          <mxGeometry relative="1" as="geometry" />
        </mxCell>
        <mxCell id="f4N3mNSty8GtpxQ3-fXS-4" value="&lt;font style=&quot;font-size: 10px;&quot;&gt;NẾU NÚT PAUSE/RESUME&amp;nbsp;&lt;br&gt;ĐƯỢC BẤM ?&lt;/font&gt;" style="rhombus;whiteSpace=wrap;html=1;" vertex="1" parent="1">
          <mxGeometry x="320" y="200" width="160" height="80" as="geometry" />
        </mxCell>
        <mxCell id="f4N3mNSty8GtpxQ3-fXS-5" value="ĐẢO BIT TR1 CỦA TIMER1" style="rounded=0;whiteSpace=wrap;html=1;" vertex="1" parent="1">
          <mxGeometry x="520" y="210" width="120" height="60" as="geometry" />
        </mxCell>
        <mxCell id="f4N3mNSty8GtpxQ3-fXS-8" value="KẾT THÚC" style="ellipse;whiteSpace=wrap;html=1;" vertex="1" parent="1">
          <mxGeometry x="340" y="320" width="120" height="80" as="geometry" />
        </mxCell>
        <mxCell id="f4N3mNSty8GtpxQ3-fXS-10" value="" style="endArrow=classic;html=1;rounded=0;exitX=0.5;exitY=1;exitDx=0;exitDy=0;" edge="1" parent="1" source="f4N3mNSty8GtpxQ3-fXS-5">
          <mxGeometry width="50" height="50" relative="1" as="geometry">
            <mxPoint x="400" y="290" as="sourcePoint" />
            <mxPoint x="400" y="300" as="targetPoint" />
            <Array as="points">
              <mxPoint x="580" y="300" />
            </Array>
          </mxGeometry>
        </mxCell>
        <mxCell id="f4N3mNSty8GtpxQ3-fXS-11" value="" style="edgeStyle=orthogonalEdgeStyle;rounded=0;orthogonalLoop=1;jettySize=auto;html=1;entryX=0.5;entryY=0;entryDx=0;entryDy=0;" edge="1" parent="1" source="f4N3mNSty8GtpxQ3-fXS-12" target="f4N3mNSty8GtpxQ3-fXS-15">
          <mxGeometry relative="1" as="geometry">
            <mxPoint x="410" y="600" as="targetPoint" />
          </mxGeometry>
        </mxCell>
        <mxCell id="f4N3mNSty8GtpxQ3-fXS-12" value="BẮT ĐẦU" style="ellipse;whiteSpace=wrap;html=1;" vertex="1" parent="1">
          <mxGeometry x="350" y="480" width="120" height="80" as="geometry" />
        </mxCell>
        <mxCell id="f4N3mNSty8GtpxQ3-fXS-13" value="" style="edgeStyle=orthogonalEdgeStyle;rounded=0;orthogonalLoop=1;jettySize=auto;html=1;" edge="1" parent="1" source="f4N3mNSty8GtpxQ3-fXS-15" target="f4N3mNSty8GtpxQ3-fXS-16">
          <mxGeometry relative="1" as="geometry" />
        </mxCell>
        <mxCell id="f4N3mNSty8GtpxQ3-fXS-14" value="" style="edgeStyle=orthogonalEdgeStyle;rounded=0;orthogonalLoop=1;jettySize=auto;html=1;" edge="1" parent="1" source="f4N3mNSty8GtpxQ3-fXS-15" target="f4N3mNSty8GtpxQ3-fXS-17">
          <mxGeometry relative="1" as="geometry" />
        </mxCell>
        <mxCell id="f4N3mNSty8GtpxQ3-fXS-15" value="&lt;font style=&quot;font-size: 10px;&quot;&gt;NẾU NÚT RESET&amp;nbsp;&lt;br&gt;ĐƯỢC BẤM ?&lt;/font&gt;" style="rhombus;whiteSpace=wrap;html=1;" vertex="1" parent="1">
          <mxGeometry x="330" y="600" width="160" height="80" as="geometry" />
        </mxCell>
        <mxCell id="f4N3mNSty8GtpxQ3-fXS-16" value="&lt;font style=&quot;font-size: 11px;&quot;&gt;GÁN GIÂY = 0,&lt;br&gt;PHẦN TRĂM GIÂY = 0&lt;/font&gt;" style="rounded=0;whiteSpace=wrap;html=1;" vertex="1" parent="1">
          <mxGeometry x="530" y="610" width="120" height="60" as="geometry" />
        </mxCell>
        <mxCell id="f4N3mNSty8GtpxQ3-fXS-17" value="KẾT THÚC" style="ellipse;whiteSpace=wrap;html=1;" vertex="1" parent="1">
          <mxGeometry x="350" y="720" width="120" height="80" as="geometry" />
        </mxCell>
        <mxCell id="f4N3mNSty8GtpxQ3-fXS-18" value="" style="endArrow=classic;html=1;rounded=0;exitX=0.5;exitY=1;exitDx=0;exitDy=0;" edge="1" parent="1" source="f4N3mNSty8GtpxQ3-fXS-16">
          <mxGeometry width="50" height="50" relative="1" as="geometry">
            <mxPoint x="410" y="690" as="sourcePoint" />
            <mxPoint x="410" y="700" as="targetPoint" />
            <Array as="points">
              <mxPoint x="590" y="700" />
            </Array>
          </mxGeometry>
        </mxCell>
      </root>
    </mxGraphModel>
  </diagram>
</mxfile>
